<svg xmlns="http://www.w3.org/2000/svg" viewBox="0 0 1200 630" width="1200" height="630">
  <rect width="1200" height="630" fill="#080C14"/>
  <line x1="0" y1="157" x2="1200" y2="157" stroke="#1A2744" stroke-width="0.7" opacity="0.5"/>
  <line x1="0" y1="315" x2="1200" y2="315" stroke="#1A2744" stroke-width="0.7" opacity="0.5"/>
  <line x1="0" y1="472" x2="1200" y2="472" stroke="#1A2744" stroke-width="0.7" opacity="0.5"/>
  <path d="M 100 240 Q 500 90 980 200"  fill="none" stroke="#1A5FA8" stroke-width="1.5" opacity="0.35" stroke-linecap="round"/>
  <path d="M 100 258 Q 502 108 976 216" fill="none" stroke="#1A6FD4" stroke-width="2.5" opacity="0.55" stroke-linecap="round"/>
  <path d="M 100 276 Q 504 126 972 232" fill="none" stroke="#2A8FFF" stroke-width="5" stroke-linecap="round"/>
  <path d="M 100 290 Q 505 140 968 244" fill="none" stroke="#80C4FF" stroke-width="1.5" opacity="0.4" stroke-linecap="round"/>
  <circle cx="972" cy="232" r="14" fill="#2A8FFF"/>
  <circle cx="972" cy="232" r="6"  fill="#E6F4FF"/>
  <circle cx="100" cy="276" r="8"  fill="#2A8FFF" opacity="0.4"/>
  <text x="100" y="470" font-family="'Helvetica Neue',Helvetica,Arial,sans-serif" font-size="230" font-weight="200" fill="#FFFFFF" letter-spacing="-8">flym</text>
  <rect x="100" y="494" width="800" height="3" rx="1.5" fill="#2A8FFF" opacity="0.8"/>
  <text x="102" y="540" font-family="'Helvetica Neue',Helvetica,Arial,sans-serif" font-size="22" font-weight="400" fill="#4A90D9" letter-spacing="9">SMART GYM MANAGEMENT</text>
  <text x="102" y="570" font-family="'Helvetica Neue',Helvetica,Arial,sans-serif" font-size="16" font-weight="300" fill="#2A5080" letter-spacing="5">POWERED BY AI  ·  MOVE WITHOUT FRICTION</text>
</svg>
